# Blender v2.83.0 OBJ File: 'AI-StealthGame_MainMap.blend'
# www.blender.org
mtllib Map.MainFloor.mtl
v -20.000000 -0.450000 20.000000
v -20.000000 -0.450000 -20.000000
v -21.000000 -0.462500 21.000000
v 20.000000 -0.450000 20.000000
v 20.000000 -0.450000 -20.000000
v 21.000000 -0.462500 21.000000
v 21.000000 -0.462500 -21.000000
v 21.000000 0.062500 21.000000
v 21.000000 0.062500 -21.000000
v -21.000000 0.062500 21.000000
v -21.000000 0.062500 -21.000000
v -20.000000 0.050000 20.000000
v -20.000000 0.050000 -20.000000
v 20.000000 0.050000 20.000000
v 20.000000 0.050000 -20.000000
v -21.000000 -0.462500 -21.000000
vt 0.640098 0.397687
vt 0.640098 0.428937
vt 0.640098 0.428937
vt 0.640098 0.397687
vt 0.671348 0.397687
vt 0.671348 0.428937
vt 0.671348 0.428937
vt 0.671348 0.397687
vt 0.702598 0.397687
vt 0.702598 0.428937
vt 0.702598 0.460187
vt 0.671348 0.460187
vt 0.671348 0.335187
vt 0.702598 0.335187
vt 0.702598 0.366437
vt 0.671348 0.366437
vt 0.702598 0.397687
vt 0.733848 0.397687
vt 0.733848 0.428937
vt 0.702598 0.428937
vn 0.0125 -0.9999 0.0000
vn 0.0000 -1.0000 0.0000
vn 0.0000 -0.9999 -0.0125
vn -0.0125 -0.9999 0.0000
vn 1.0000 0.0000 0.0000
vn 0.0000 0.0000 1.0000
vn -1.0000 0.0000 0.0000
vn 0.0000 1.0000 0.0000
vn 0.0000 0.0000 -1.0000
vn 0.0000 -0.9999 0.0125
vn -0.0125 0.9999 0.0000
vn 0.0000 0.9999 -0.0125
vn 0.0000 0.9999 0.0125
vn 0.0125 0.9999 0.0000
usemtl LowPolyPalette
s off
f 2/1/1 1/2/1 3/3/1 16/4/1
f 2/1/2 5/5/2 4/6/2 1/2/2
f 1/2/3 4/6/3 6/7/3 3/3/3
f 4/6/4 5/5/4 7/8/4 6/7/4
f 7/8/5 9/9/5 8/10/5 6/7/5
f 6/7/6 8/10/6 10/11/6 3/12/6
f 3/13/7 10/14/7 11/15/7 16/16/7
f 15/17/8 13/18/8 12/19/8 14/20/8
f 16/16/9 11/15/9 9/9/9 7/8/9
f 5/5/10 2/1/10 16/4/10 7/8/10
f 8/10/11 9/9/11 15/17/11 14/20/11
f 10/11/12 8/10/12 14/20/12 12/19/12
f 15/17/13 9/9/13 11/15/13 13/18/13
f 11/15/14 10/11/14 12/19/14 13/18/14
