# Blender v2.83.0 OBJ File: 'AI-StealthGame_MainMap.blend'
# www.blender.org
mtllib Map.MainWalls.mtl
v 21.000000 0.062500 21.000000
v 21.000000 0.062500 -21.000000
v -21.000000 0.062500 21.000000
v -21.000000 0.062500 -21.000000
v -20.000000 0.050000 20.000000
v -20.000000 0.050000 -20.000000
v 20.000000 0.050000 20.000000
v 20.000000 0.050000 -20.000000
v 21.000000 3.562500 -21.000000
v 21.000000 3.562500 21.000000
v -21.000000 3.562500 21.000000
v -21.000000 3.562500 -21.000000
v -20.000000 3.550000 20.000000
v -20.000000 3.550000 -20.000000
v 20.000000 3.550000 20.000000
v 20.000000 3.550000 -20.000000
vt 0.702598 0.428937
vt 0.702598 0.428937
vt 0.702598 0.397687
vt 0.702598 0.397687
vt 0.702598 0.460187
vt 0.733848 0.428937
vt 0.733848 0.397687
vt 0.702598 0.366437
vt 0.702598 0.428937
vt 0.702598 0.397687
vt 0.702598 0.397687
vt 0.702598 0.428937
vt 0.702598 0.460187
vt 0.733848 0.428937
vt 0.702598 0.366437
vt 0.733848 0.397687
vn 0.0125 -0.9999 0.0000
vn 0.0000 -0.9999 0.0125
vn 0.0000 -0.9999 -0.0125
vn -0.0125 -0.9999 0.0000
vn -0.0125 0.9999 0.0000
vn 0.0000 0.9999 -0.0125
vn 0.0000 0.9999 0.0125
vn 0.0125 0.9999 0.0000
vn 0.0000 0.0000 1.0000
vn 0.0000 0.0000 -1.0000
vn -1.0000 0.0000 0.0000
vn 1.0000 0.0000 0.0000
usemtl LowPolyPalette
s off
f 1/1/1 7/2/1 8/3/1 2/4/1
f 3/5/2 5/6/2 7/2/2 1/1/2
f 8/3/3 6/7/3 4/8/3 2/4/3
f 4/8/4 6/7/4 5/6/4 3/5/4
f 10/9/5 9/10/5 16/11/5 15/12/5
f 11/13/6 10/9/6 15/12/6 13/14/6
f 16/11/7 9/10/7 12/15/7 14/16/7
f 12/15/8 11/13/8 13/14/8 14/16/8
f 6/7/9 8/3/9 16/11/9 14/16/9
f 7/2/10 5/6/10 13/14/10 15/12/10
f 4/8/11 3/5/11 11/13/11 12/15/11
f 1/1/12 2/4/12 9/10/12 10/9/12
f 2/4/10 4/8/10 12/15/10 9/10/10
f 8/3/11 7/2/11 15/12/11 16/11/11
f 5/6/12 6/7/12 14/16/12 13/14/12
f 3/5/9 1/1/9 10/9/9 11/13/9
